# xmcd
#
# Track frame offsets: 
#        150
#        28089
#        48700
#        76988
#        99341
#        129298
#        180878
#        207777
#        231518
#        258704
#
# Disc length: 3764 seconds
#
# Revision: 0
# Processed by: cddbd v1.5.2PL0 Copyright (c) Steve Scherf et al.
# Submitted via: ExactAudioCopy v1.0b1
#
DISCID=800eb20a
DTITLE=Clarence ''Gatemouth'' Brown - Live From Austin Tx
DYEAR=2012
DGENRE=Electric Blues/ Texas Blues
TTITLE0=Ain t That Dandy
TTITLE1=Born In Louisiana
TTITLE2=Honky-Tonk
TTITLE3=Dark End of the Hallway
TTITLE4=Bits and Pieces
TTITLE5=Leftover Blues
TTITLE6=There You Are
TTITLE7=Early In The Mornin
TTITLE8=Things Ain t What They Used To Be
TTITLE9=Up Jumped the Devil
EXTD=
EXTT0=
EXTT1=
EXTT2=
EXTT3=
EXTT4=
EXTT5=
EXTT6=
EXTT7=
EXTT8=
EXTT9=
PLAYORDER=
